<svg xmlns="http://www.w3.org/2000/svg" version="1.1" xmlns:xlink="http://www.w3.org/1999/xlink" xmlns:svgjs="http://svgjs.com/svgjs" id="Pattern1183SvgRootPreview" width="100%" height="100%"><defs><pattern x="0" y="0" width="1.0757575757575757" height="1.0757575757575757" patternUnits="userSpaceOnUse" id="Pattern1183Layer1" viewBox="0 0 1.0757575757575757 1.0757575757575757" preserveAspectRatio="xMidYMid slice"><g id="PatternRootContent1" transform="scale(1.0757575757575757) rotate(0)"><g id="Pattern1183Layer1background"><rect width="1" height="1" id="Pattern1183Background1" class="color_1 fill_color_1" fill="#ffe9a2"></rect></g></g></pattern><pattern x="0" y="0" width="71" height="142" patternUnits="userSpaceOnUse" id="Pattern1183Layer2" patternTransform="matrix(0.5,0,0,0.5,0,0)" viewBox="0 0 71 142" preserveAspectRatio="xMidYMid slice"><g id="PatternRootContent2" transform="scale(1.0757575757575757) rotate(0)"><g id="Pattern1183Layer2Element3"><use xlink:href="#Pattern1183Element3" x="37.28681945800781" y="-80.7320556640625" transform="translate(66, -33) scale(1) translate(-66, 33) rotate(0, 66, -33)"></use><use xlink:href="#Pattern1183Element3" x="-28.713180541992188" y="-80.7320556640625" transform="translate(0, -33) scale(1) translate(0, 33) rotate(0, 0, -33)"></use><use xlink:href="#Pattern1183Element3" x="4.2868194580078125" y="-14.7320556640625" transform="translate(33, 33) scale(1) translate(-33, -33) rotate(0, 33, 33)"></use><use xlink:href="#Pattern1183Element3" x="-61.71318054199219" y="-14.7320556640625" transform="translate(-33, 33) scale(1) translate(33, -33) rotate(0, -33, 33)"></use><use xlink:href="#Pattern1183Element3" x="37.28681945800781" y="51.2679443359375" transform="translate(66, 99) scale(1) translate(-66, -99) rotate(0, 66, 99)"></use><use xlink:href="#Pattern1183Element3" x="-28.713180541992188" y="51.2679443359375" transform="translate(0, 99) scale(1) translate(0, -99) rotate(0, 0, 99)"></use><use xlink:href="#Pattern1183Element3" x="4.2868194580078125" y="117.2679443359375" transform="translate(33, 165) scale(1) translate(-33, -165) rotate(0, 33, 165)"></use><use xlink:href="#Pattern1183Element3" x="4.2868194580078125" y="117.2679443359375" transform="translate(33, 165) scale(1) translate(-33, -165) rotate(0, 33, 165)"></use></g></g></pattern><symbol id="Pattern1183Element3"><g class="color_4 fill_color_4" fill="#bcd595"><g><path d="M26.713,28L26.713,-5.684341886080802e-14l4,0l0,28l-4,0Z"></path><path d="M33.177,32.2679443359375L57.426,46.267948150634766l-2,3.464l-24.249,-14l2,-3.464Z"></path><path d="M26.249,35.732051849365234L2,49.732051849365234l-2,-3.464l24.249,-14l2,3.464Z"></path></g><g><path d="M30.713,67.464111328125L30.713,95.464111328125l-4,0l0,-28l4,0Z"></path><path d="M24.249,63.19615936279297L0,49.1961555480957l2,-3.464l24.249,14l-2,3.464Z"></path><path d="M31.177,59.732051849365234L55.426,45.732051849365234l2,3.464l-24.249,14l-2,-3.464Z"></path></g></g></symbol></defs><rect width="100%" height="100%" id="Pattern1183RctLayer1" fill="url(#Pattern1183Layer1)"></rect><rect width="100%" height="100%" id="Pattern1183RctLayer2" fill="url(#Pattern1183Layer2)"></rect></svg>