<svg width="345" height="492" viewBox="0 0 345 492" fill="none" xmlns="http://www.w3.org/2000/svg">
<path d="M342.898 1C342.408 85.4474 307.156 255.226 170.062 258.761C32.9679 262.296 7.18116 411.781 11.4245 486.081" stroke="black" stroke-width="3"/>
<path d="M12.4852 491.56C11.8994 492.146 10.9497 492.146 10.3639 491.56L0.817928 482.014C0.232142 481.429 0.232142 480.479 0.817928 479.893C1.40371 479.307 2.35346 479.307 2.93925 479.893L11.4245 488.378L19.9098 479.893C20.4956 479.307 21.4453 479.307 22.0311 479.893C22.6169 480.479 22.6169 481.429 22.0311 482.014L12.4852 491.56ZM12.9245 485.59V490.5H9.92453V485.59H12.9245Z" fill="black"/>
</svg>
